<svg width="29" height="29" viewBox="0 0 29 29" fill="none" xmlns="http://www.w3.org/2000/svg">
<path fill-rule="evenodd" clip-rule="evenodd" d="M23.2398 9.76091C23.2482 9.96839 23.251 10.1758 23.251 10.3833C23.251 16.6737 18.6075 23.9357 10.116 23.9357C7.50762 23.9357 5.08216 23.1435 3.03858 21.7948C3.39982 21.8326 3.76669 21.8609 4.13919 21.8609C6.30193 21.8609 8.2939 21.0969 9.87397 19.8142C7.85385 19.786 6.14806 18.3996 5.55976 16.5134C5.84218 16.57 6.13303 16.5984 6.43046 16.5984C6.84987 16.5984 7.25708 16.5418 7.64741 16.4287C5.53346 15.9949 3.94121 14.071 3.94121 11.7604C3.94121 11.7321 3.94121 11.7226 3.94121 11.7037C4.56423 12.0527 5.27732 12.2695 6.03451 12.2978C4.7941 11.4396 3.97872 9.9778 3.97872 8.32738C3.97872 7.45973 4.20579 6.6392 4.6055 5.93188C6.88177 8.81776 10.2849 10.7134 14.1216 10.9115C14.0428 10.5625 14.0024 10.1948 14.0024 9.82699C14.0024 7.19575 16.0694 5.0643 18.6197 5.0643C19.9473 5.0643 21.1465 5.63967 21.9881 6.56391C23.0418 6.35643 24.0289 5.96035 24.9221 5.41336C24.5759 6.52621 23.845 7.45969 22.8898 8.04441C23.8243 7.93124 24.7157 7.67679 25.5423 7.29955C24.9221 8.25208 24.1415 9.09131 23.2398 9.76091Z" fill="white"/>
</svg>
