<svg width="95" height="48" viewBox="0 0 95 48" fill="none" xmlns="http://www.w3.org/2000/svg">
<path fill-rule="evenodd" clip-rule="evenodd" d="M22.809 37.0585C22.809 37.6552 22.1044 37.9724 21.6577 37.5767L10.4423 27.6431C10.2939 27.5117 10.209 27.323 10.209 27.1248V20.5549C10.209 20.3528 10.2973 20.1608 10.4507 20.0292L21.6661 10.4161C22.1152 10.0311 22.809 10.3502 22.809 10.9417V18.8403C22.809 19.0411 22.7218 19.232 22.5701 19.3635L17.9906 23.3324C17.6798 23.6017 17.671 24.081 17.9717 24.3616L22.589 28.6712C22.7293 28.8021 22.809 28.9854 22.809 29.1773V37.0585ZM57.4988 26.0165C57.4988 26.6565 57.3755 27.3065 57.1288 27.9665C56.8888 28.6265 56.5221 29.2331 56.0288 29.7865C55.5421 30.3398 54.9221 30.7898 54.1688 31.1365C53.4221 31.4765 52.5355 31.6465 51.5088 31.6465C50.1421 31.6465 48.9755 31.3231 48.0088 30.6765C47.0421 30.0231 46.3021 29.1231 45.7888 27.9765C45.2821 26.8298 45.0288 25.5131 45.0288 24.0265C45.0288 22.5398 45.2821 21.2265 45.7888 20.0865C46.3021 18.9465 47.0421 18.0531 48.0088 17.4065C48.9755 16.7598 50.1421 16.4365 51.5088 16.4365C52.6488 16.4365 53.6188 16.6431 54.4188 17.0565C55.2255 17.4698 55.8688 18.0065 56.3488 18.6665C56.8355 19.3265 57.1655 20.0231 57.3388 20.7565C57.4455 21.2031 57.4988 21.6331 57.4988 22.0465H54.3888C54.3888 21.8465 54.3721 21.6531 54.3388 21.4665C54.2721 20.9798 54.1188 20.5465 53.8788 20.1665C53.6388 19.7865 53.3188 19.4865 52.9188 19.2665C52.5255 19.0398 52.0555 18.9265 51.5088 18.9265C50.8688 18.9265 50.2988 19.1098 49.7988 19.4765C49.2988 19.8431 48.9055 20.4031 48.6188 21.1565C48.3321 21.9098 48.1888 22.8665 48.1888 24.0265C48.1888 25.1931 48.3321 26.1565 48.6188 26.9165C48.9055 27.6698 49.2988 28.2331 49.7988 28.6065C50.2988 28.9731 50.8688 29.1565 51.5088 29.1565C51.9688 29.1565 52.3755 29.0731 52.7288 28.9065C53.0888 28.7398 53.3888 28.5098 53.6288 28.2165C53.8755 27.9231 54.0621 27.5865 54.1888 27.2065C54.3221 26.8265 54.3888 26.4298 54.3888 26.0165H57.4988ZM63.5304 31.6465C62.4637 31.6465 61.5237 31.4765 60.7104 31.1365C59.9037 30.7965 59.2704 30.2898 58.8104 29.6165C58.357 28.9365 58.1304 28.0931 58.1304 27.0865V26.7965V26.4965H61.2404V26.7665V27.0265C61.2404 27.7131 61.4337 28.2398 61.8204 28.6065C62.207 28.9731 62.7804 29.1565 63.5404 29.1565C64.307 29.1565 64.897 29.0365 65.3104 28.7965C65.7237 28.5498 65.9304 28.1465 65.9304 27.5865C65.9304 27.1931 65.7737 26.8465 65.4604 26.5465C65.1537 26.2465 64.7337 25.9798 64.2004 25.7465C63.6737 25.5065 63.0704 25.2831 62.3904 25.0765C61.6504 24.8431 60.9637 24.5365 60.3304 24.1565C59.697 23.7765 59.187 23.2931 58.8004 22.7065C58.4204 22.1198 58.2304 21.3965 58.2304 20.5365C58.2304 19.6698 58.4604 18.9331 58.9204 18.3265C59.3804 17.7131 60.007 17.2465 60.8004 16.9265C61.5937 16.5998 62.4904 16.4365 63.4904 16.4365C64.537 16.4365 65.4604 16.5998 66.2604 16.9265C67.067 17.2465 67.697 17.7298 68.1504 18.3765C68.6104 19.0165 68.8404 19.8165 68.8404 20.7765V21.0765V21.3765H65.7404V21.1465V20.9165C65.7404 20.2698 65.5604 19.7731 65.2004 19.4265C64.847 19.0798 64.2904 18.9065 63.5304 18.9065C62.797 18.9065 62.227 19.0398 61.8204 19.3065C61.4204 19.5731 61.2204 19.9831 61.2204 20.5365C61.2204 20.9365 61.3637 21.2765 61.6504 21.5565C61.9437 21.8365 62.3437 22.0865 62.8504 22.3065C63.357 22.5265 63.9337 22.7465 64.5804 22.9665C65.4604 23.2731 66.227 23.6131 66.8804 23.9865C67.5404 24.3531 68.0504 24.8165 68.4104 25.3765C68.7704 25.9298 68.9504 26.6365 68.9504 27.4965C68.9504 28.3765 68.7237 29.1265 68.2704 29.7465C67.817 30.3665 67.1804 30.8398 66.3604 31.1665C65.547 31.4865 64.6037 31.6465 63.5304 31.6465ZM72.1713 31.1365C72.9846 31.4765 73.9246 31.6465 74.9913 31.6465C76.0646 31.6465 77.008 31.4865 77.8213 31.1665C78.6413 30.8398 79.278 30.3665 79.7313 29.7465C80.1846 29.1265 80.4113 28.3765 80.4113 27.4965C80.4113 26.6365 80.2313 25.9298 79.8713 25.3765C79.5113 24.8165 79.0013 24.3531 78.3413 23.9865C77.688 23.6131 76.9213 23.2731 76.0413 22.9665C75.3946 22.7465 74.818 22.5265 74.3113 22.3065C73.8046 22.0865 73.4046 21.8365 73.1113 21.5565C72.8246 21.2765 72.6813 20.9365 72.6813 20.5365C72.6813 19.9831 72.8813 19.5731 73.2813 19.3065C73.688 19.0398 74.258 18.9065 74.9913 18.9065C75.7513 18.9065 76.308 19.0798 76.6613 19.4265C77.0213 19.7731 77.2013 20.2698 77.2013 20.9165V21.1465V21.3765H80.3013V21.0765V20.7765C80.3013 19.8165 80.0713 19.0165 79.6113 18.3765C79.158 17.7298 78.528 17.2465 77.7213 16.9265C76.9213 16.5998 75.998 16.4365 74.9513 16.4365C73.9513 16.4365 73.0546 16.5998 72.2613 16.9265C71.468 17.2465 70.8413 17.7131 70.3813 18.3265C69.9213 18.9331 69.6913 19.6698 69.6913 20.5365C69.6913 21.3965 69.8813 22.1198 70.2613 22.7065C70.648 23.2931 71.158 23.7765 71.7913 24.1565C72.4246 24.5365 73.1113 24.8431 73.8513 25.0765C74.5313 25.2831 75.1346 25.5065 75.6613 25.7465C76.1946 25.9798 76.6146 26.2465 76.9213 26.5465C77.2346 26.8465 77.3913 27.1931 77.3913 27.5865C77.3913 28.1465 77.1846 28.5498 76.7713 28.7965C76.358 29.0365 75.768 29.1565 75.0013 29.1565C74.2413 29.1565 73.668 28.9731 73.2813 28.6065C72.8946 28.2398 72.7013 27.7131 72.7013 27.0265V26.7665V26.4965H69.5913V26.7965V27.0865C69.5913 28.0931 69.818 28.9365 70.2713 29.6165C70.7313 30.2898 71.3646 30.7965 72.1713 31.1365ZM83.1522 31.7065C82.6922 31.7065 82.3022 31.5465 81.9822 31.2265C81.6622 30.9065 81.5022 30.5165 81.5022 30.0565C81.5022 29.6031 81.6622 29.2165 81.9822 28.8965C82.3022 28.5765 82.6922 28.4165 83.1522 28.4165C83.6056 28.4165 83.9922 28.5765 84.3122 28.8965C84.6322 29.2165 84.7922 29.6031 84.7922 30.0565C84.7922 30.5165 84.6322 30.9065 84.3122 31.2265C83.9922 31.5465 83.6056 31.7065 83.1522 31.7065ZM25.7603 37.5767C25.3136 37.9724 24.609 37.6553 24.609 37.0585V29.1773C24.609 28.9854 24.6886 28.8021 24.8289 28.6712L29.4463 24.3617C29.7469 24.081 29.7381 23.6017 29.4273 23.3324L24.8479 19.3635C24.6961 19.232 24.609 19.0411 24.609 18.8404V10.9417C24.609 10.3502 25.3028 10.0311 25.7518 10.4161L36.9672 20.0293C37.1207 20.1608 37.209 20.3528 37.209 20.5549V27.1249C37.209 27.323 37.1241 27.5117 36.9757 27.6431L25.7603 37.5767Z" fill="#FDDD35"/>
</svg>
