<svg width="22" height="22" viewBox="0 0 22 22" fill="none" xmlns="http://www.w3.org/2000/svg">
<path d="M22 10.9987C21.9998 8.89663 21.3972 6.83861 20.2636 5.06833C19.1302 3.29805 17.513 1.88962 15.6039 1.00982C13.6948 0.130002 11.5736 -0.184353 9.49131 0.103961C7.40908 0.392265 5.45305 1.27118 3.85481 2.63662C2.25656 4.00207 1.08303 5.79688 0.473145 7.80856C-0.13674 9.82024 -0.15744 11.9645 0.413497 13.9876C0.984435 16.0107 2.1231 17.8279 3.69469 19.2238C5.26627 20.6199 7.20497 21.5365 9.28126 21.8649V14.1787H6.48817V10.9987H9.28126V8.57506C9.28126 5.81865 10.9239 4.29515 13.4356 4.29515C14.2607 4.30698 15.0839 4.37866 15.8987 4.50965V7.21748H14.5109C14.0931 7.16202 13.6703 7.27474 13.3357 7.53087C13.001 7.787 12.7818 8.16556 12.7261 8.58332C12.7103 8.7003 12.7079 8.81869 12.7188 8.93623V10.9987H15.7667L15.279 14.1787H12.7123V21.8649C15.301 21.457 17.6591 20.1382 19.3617 18.1461C21.0645 16.1539 22.0001 13.6194 22 10.9987Z" fill="white"/>
</svg>
