<svg width="21" height="20" viewBox="0 0 21 20" fill="none" xmlns="http://www.w3.org/2000/svg">
<path d="M8.94302 7.44811V10.8856C8.52749 10.7715 8.09271 10.756 7.67065 10.8401C7.24859 10.9241 6.85005 11.1058 6.50438 11.3715C6.15871 11.6373 5.87472 11.9804 5.67335 12.3756C5.47197 12.7708 5.35836 13.208 5.34086 13.655C5.31722 14.0399 5.37296 14.4255 5.50437 14.7861C5.63577 15.1467 5.83979 15.4737 6.10269 15.7455C6.3656 16.0172 6.68132 16.2272 7.02864 16.3612C7.37594 16.4954 7.74681 16.5506 8.11632 16.5231C10.1671 16.5231 10.8917 15.0231 10.8917 13.6163V0H14.1565C14.7118 3.59562 16.4379 4.42999 18.7516 4.81562V8.26062C18.7516 8.26062 16.0069 8.05748 14.2489 6.6775V13.4831C14.2472 16.5625 12.4935 20 8.14093 20C4.10171 20 2.03528 16.4374 2.03528 13.4513C2.06104 12.5665 2.26667 11.6974 2.63861 10.9015C3.01054 10.1055 3.54036 9.40062 4.19308 8.83338C4.84581 8.26612 5.60664 7.84936 6.42538 7.61059C7.24414 7.37181 8.1022 7.31643 8.94302 7.44811Z" fill="white"/>
</svg>
