<svg width="22" height="24" viewBox="0 0 22 24" fill="none" xmlns="http://www.w3.org/2000/svg">
<path fill-rule="evenodd" clip-rule="evenodd" d="M6.46554 1.21171C7.63888 1.1506 8.01777 1.1506 11 1.1506C13.9822 1.1506 14.3611 1.1506 15.5467 1.21171C16.4573 1.23137 17.3582 1.4049 18.2111 1.72497C19.6829 2.30731 20.8411 3.48305 21.4011 4.96339C21.7212 5.81612 21.8948 6.71685 21.9144 7.62746C21.9756 8.80062 21.9756 9.17946 21.9756 12.1613C21.9756 13.9792 21.9528 14.8115 21.9351 15.4611C21.9237 15.877 21.9144 16.218 21.9144 16.6951C21.8948 17.6056 21.7212 18.5064 21.4011 19.3591C20.8298 20.8351 19.6629 22.002 18.1867 22.5731C17.3338 22.8932 16.4329 23.0668 15.5222 23.0864C14.3489 23.1474 13.97 23.1474 10.9881 23.1474C9.16988 23.1474 8.33721 23.1248 7.68746 23.1071C7.2715 23.0957 6.93038 23.0864 6.45332 23.0864C5.54259 23.0668 4.64174 22.8932 3.78889 22.5731C2.31022 21.9993 1.14279 20.8275 0.574443 19.3469C0.25434 18.4942 0.0807813 17.5934 0.061111 16.6828C0 15.5096 0 15.1309 0 12.149C0 9.16724 0 8.78841 0.061111 7.60301C0.0807813 6.69241 0.25434 5.79169 0.574443 4.93895C1.14841 3.4605 2.32027 2.29324 3.80111 1.72497C4.65397 1.4049 5.55482 1.23137 6.46554 1.21171ZM15.4496 3.19304C14.2885 3.13194 13.9341 3.13194 11.0007 3.13194V3.15639C9.19127 3.15639 8.36423 3.17944 7.72625 3.19723C7.32571 3.20839 6.99969 3.21748 6.55187 3.21748C5.85487 3.22644 5.16454 3.35457 4.51076 3.59632C3.56586 3.96896 2.81791 4.71681 2.4452 5.66157C2.20342 6.31527 2.07528 7.00549 2.06631 7.70239C2.0052 8.86334 2.0052 9.20552 2.0052 12.1506C2.0052 13.9599 2.02827 14.7868 2.04606 15.4247C2.05723 15.8252 2.06631 16.1512 2.06631 16.5989C2.07528 17.2958 2.20342 17.986 2.4452 18.6397C2.81791 19.5845 3.56586 20.3323 4.51076 20.7049C5.16454 20.9467 5.85487 21.0749 6.55187 21.0838C7.71298 21.1449 8.05519 21.1449 11.0007 21.1449C12.8102 21.1449 13.6373 21.1218 14.2752 21.1041C14.6758 21.0929 15.0018 21.0838 15.4496 21.0838C16.1467 21.0749 16.837 20.9467 17.4907 20.7049C18.4356 20.3323 19.1836 19.5845 19.5563 18.6397C19.798 17.986 19.9263 17.2958 19.9352 16.5989C19.9963 15.438 19.9963 15.0958 19.9963 12.1506C19.9963 10.3414 19.9732 9.5145 19.9555 8.87662C19.9442 8.47613 19.9352 8.15017 19.9352 7.70239C19.9263 7.00549 19.798 6.31527 19.5563 5.66157C19.1836 4.71681 18.4356 3.96896 17.4907 3.59632C16.8384 3.34623 16.148 3.20982 15.4496 3.19304Z" fill="white"/>
<path fill-rule="evenodd" clip-rule="evenodd" d="M5.35156 12.1478C5.35156 9.02969 7.87966 6.50195 10.9982 6.50195C12.4958 6.50195 13.932 7.09678 14.991 8.15559C16.0499 9.21439 16.6449 10.6504 16.6449 12.1478C16.6449 15.2659 14.1168 17.7937 10.9982 17.7937C7.87966 17.7937 5.35156 15.2659 5.35156 12.1478ZM7.33289 12.1488C7.33289 14.1738 8.97452 15.8154 10.9996 15.8154C11.972 15.8154 12.9046 15.4292 13.5923 14.7414C14.2799 14.0538 14.6662 13.1213 14.6662 12.1488C14.6662 10.1237 13.0247 8.4821 10.9996 8.4821C8.97452 8.4821 7.33289 10.1237 7.33289 12.1488Z" fill="white"/>
<path fill-rule="evenodd" clip-rule="evenodd" d="M16.6013 6.64C17.3302 6.64 17.9213 6.04902 17.9213 5.32C17.9213 4.59098 17.3302 4 16.6013 4C15.8722 4 15.2812 4.59098 15.2812 5.32C15.2812 6.04902 15.8722 6.64 16.6013 6.64Z" fill="white"/>
</svg>
