<svg width="22" height="15" viewBox="0 0 22 15" fill="none" xmlns="http://www.w3.org/2000/svg">
<path fill-rule="evenodd" clip-rule="evenodd" d="M20.9 1.09984C21.368 1.70001 21.6713 2.41187 21.78 3.1651C21.9168 4.28435 21.9902 5.41044 22 6.53796V8.11439C21.9907 9.246 21.9173 10.3762 21.78 11.4995C21.6713 12.2527 21.368 12.9646 20.9 13.5647C20.3042 14.1253 19.5182 14.4397 18.7 14.4446C15.62 14.6646 11 14.6646 11 14.6646C11 14.6646 5.28 14.6646 3.54444 14.4568C2.65077 14.4522 1.78656 14.1367 1.1 13.5647C0.630057 12.9611 0.326634 12.2447 0.22 11.4873C0.0831521 10.368 0.00970151 9.24193 0 8.11439V6.53796C0.00924018 5.40635 0.0826915 4.27618 0.22 3.15288C0.328686 2.39965 0.632005 1.6878 1.1 1.08762C1.69586 0.527022 2.48184 0.212679 3.3 0.207753C6.38 5.46376e-08 11 0 11 0C11 0 15.62 3.64251e-08 18.7 0.219963C19.5182 0.224901 20.3042 0.539244 20.9 1.09984ZM15.8889 7.33333L8.55556 3.66667V11L15.8889 7.33333Z" fill="white"/>
</svg>
