<svg width="23" height="19" viewBox="0 0 23 19" fill="none" xmlns="http://www.w3.org/2000/svg">
<path fill-rule="evenodd" clip-rule="evenodd" d="M20.3389 4.72862C20.3474 4.93751 20.3502 5.14633 20.3502 5.35522C20.3502 11.6886 15.675 19 7.1257 19C4.4995 19 2.05751 18.2024 0 16.8446C0.363701 16.8826 0.733073 16.9111 1.10811 16.9111C3.28559 16.9111 5.29114 16.1418 6.88198 14.8505C4.84809 14.822 3.13067 13.4262 2.53836 11.5271C2.82271 11.5841 3.11554 11.6127 3.415 11.6127C3.83727 11.6127 4.24726 11.5558 4.64024 11.4418C2.51188 11.005 0.908784 9.06806 0.908784 6.74172C0.908784 6.71324 0.908784 6.70369 0.908784 6.6847C1.53605 7.03602 2.25399 7.2543 3.01635 7.28279C1.76748 6.41872 0.946551 4.94699 0.946551 3.28532C0.946551 2.41176 1.17516 1.58563 1.57759 0.873489C3.86938 3.77904 7.29575 5.68761 11.1585 5.88701C11.0792 5.53569 11.0385 5.16546 11.0385 4.79515C11.0385 2.14597 13.1197 0 15.6873 0C17.024 0 18.2313 0.579294 19.0787 1.50983C20.1396 1.30093 21.1334 0.90216 22.0327 0.351436C21.6841 1.47188 20.9482 2.41171 19.9865 3.00042C20.9274 2.88647 21.8249 2.6303 22.6571 2.25049C22.0327 3.20951 21.2467 4.05446 20.3389 4.72862Z" fill="white"/>
</svg>
