<svg width="147" height="253" viewBox="0 0 147 253" fill="none" xmlns="http://www.w3.org/2000/svg">
<path d="M21.3803 23.5214L23.3052 28.7233L28.5071 30.6482L23.3052 32.5731L21.3803 37.775L19.4554 32.5731L14.2535 30.6482L19.4554 28.7233L21.3803 23.5214Z" fill="white"/>
<path d="M131.846 37.775L134.733 45.5778L142.536 48.4651L134.733 51.3524L131.846 59.1553L128.958 51.3524L121.155 48.4651L128.958 45.5778L131.846 37.775Z" fill="white"/>
<path d="M86.234 121.155L89.6988 130.518L99.0622 133.983L89.6988 137.448L86.234 146.811L82.7692 137.448L73.4058 133.983L82.7692 130.518L86.234 121.155Z" fill="white"/>
<path d="M39.91 190.281L41.8349 195.483L47.0368 197.408L41.8349 199.333L39.91 204.535L37.9851 199.333L32.7832 197.408L37.9851 195.483L39.91 190.281Z" fill="white"/>
<path d="M69.8425 37.775L71.7673 42.9769L76.9692 44.9017L71.7673 46.8266L69.8425 52.0285L67.9176 46.8266L62.7157 44.9017L67.9176 42.9769L69.8425 37.775Z" fill="white"/>
<path d="M7.12677 228.056L9.05165 233.258L14.2535 235.183L9.05165 237.108L7.12677 242.31L5.2019 237.108L0 235.183L5.2019 233.258L7.12677 228.056Z" fill="white"/>
<path d="M138.972 159.641L140.897 164.843L146.099 166.768L140.897 168.693L138.972 173.895L137.047 168.693L131.845 166.768L137.047 164.843L138.972 159.641Z" fill="white"/>
<path d="M35.634 77.6833L38.3288 84.9659L45.6114 87.6607L38.3288 90.3556L35.634 97.6382L32.9391 90.3556L25.6565 87.6607L32.9391 84.9659L35.634 77.6833Z" fill="white"/>
<path d="M96.2114 0L98.9063 7.28266L106.189 9.97748L98.9063 12.6723L96.2114 19.955L93.5166 12.6723L86.2339 9.97748L93.5166 7.28266L96.2114 0Z" fill="white"/>
<path d="M121.511 97.6335L122.955 101.535L126.857 102.979L122.955 104.422L121.511 108.324L120.068 104.422L116.166 102.979L120.068 101.535L121.511 97.6335Z" fill="white"/>
<path d="M7.48306 136.12L8.92672 140.021L12.8281 141.465L8.92672 142.908L7.48306 146.81L6.0394 142.908L2.13798 141.465L6.0394 140.021L7.48306 136.12Z" fill="white"/>
<path d="M135.409 220.93L137.334 226.131L142.536 228.056L137.334 229.981L135.409 235.183L133.484 229.981L128.282 228.056L133.484 226.131L135.409 220.93Z" fill="white"/>
<circle cx="37.7721" cy="39.913" r="2.13803" fill="white"/>
<circle cx="52.7382" cy="2.13803" r="2.13803" fill="white"/>
<circle cx="141.11" cy="89.8003" r="2.13803" fill="white"/>
<circle cx="27.7945" cy="126.856" r="2.13803" fill="white"/>
<circle cx="110.465" cy="177.455" r="2.13803" fill="white"/>
<circle cx="86.2342" cy="181.729" r="2.13803" fill="white"/>
<circle cx="77.6818" cy="163.201" r="2.13803" fill="white"/>
<circle cx="101.2" cy="197.413" r="2.13803" fill="white"/>
<circle cx="143.961" cy="199.546" r="2.13803" fill="white"/>
<circle cx="4.27601" cy="218.793" r="2.13803" fill="white"/>
<circle cx="106.189" cy="250.864" r="2.13803" fill="white"/>
<circle cx="66.6356" cy="224.848" r="3.20705" fill="white"/>
<circle cx="91.2227" cy="91.221" r="4.98874" fill="white"/>
<circle cx="10.3339" cy="75.8984" r="3.91972" fill="white"/>
<circle cx="52.7382" cy="188.145" r="2.13803" fill="white"/>
<circle cx="133.983" cy="157.505" r="2.13803" fill="white"/>
</svg>
